<svg width="1024" height="1024" viewBox="0 0 1024 1024" fill="none" xmlns="http://www.w3.org/2000/svg">
<g clip-path="url(#clip0_2_26)">
<path d="M0 340.3C0 60.063 60.063 0 340.3 0H684.7C964.937 0 1025 60.063 1025 340.3V684.7C1025 964.937 964.937 1025 684.7 1025H340.3C60.063 1025 0 964.937 0 684.7V340.3Z" fill="black"/>
<path d="M509.789 651.531C512.235 648.76 514.586 645.942 516.84 643.075C523.021 650.6 529.757 657.69 537.048 664.342L537.053 664.347C541.308 668.196 545.726 671.876 550.308 675.389L469.703 783.9L467.925 786.294H470.908H548.62H549.374L549.824 785.689L607.912 707.489C609.89 708.264 611.887 709.02 613.903 709.756L613.914 709.759C643.882 720.45 676.999 725.784 713.25 725.784C749.321 725.784 782.349 720.45 812.316 709.759L812.323 709.757C842.272 698.892 867.898 683.759 889.178 664.345C910.637 644.932 927.278 621.798 939.095 594.955L939.096 594.951C950.92 567.911 956.822 538.26 956.822 506.017C956.822 473.953 950.92 444.569 939.093 417.886C927.275 391.222 910.633 368.357 889.172 349.304C886.156 346.578 883.053 343.94 879.862 341.39L954.36 241.1L956.139 238.706H953.156H875.444H874.689L874.24 239.311L822.759 308.614C819.336 307.249 815.852 305.946 812.308 304.703C782.343 294.194 749.319 288.95 713.25 288.95C677.002 288.95 643.887 294.194 613.921 304.703L613.919 304.704C584.147 315.208 558.519 330.07 537.058 349.303C515.777 368.357 499.225 391.223 487.407 417.886C479.073 436.69 473.681 456.835 471.223 478.314H324.809H323.309V479.814V550.319V551.819H324.809H470.863C468.264 565.874 463.207 578.6 455.696 590.01C447.87 601.721 437.725 611.757 425.243 620.117C412.762 628.478 398.114 634.989 381.28 639.635C364.457 644.098 345.907 646.337 325.621 646.337C300.128 646.337 277.1 642.845 256.521 635.883C235.917 628.733 218.399 618.917 203.94 606.451C189.482 593.985 178.332 579.123 170.479 561.854C162.633 544.597 158.7 525.632 158.7 504.936C158.7 484.959 162.453 466.621 169.941 449.902C177.428 433.185 188.299 418.87 202.568 406.948L202.577 406.941C216.845 394.842 234.352 385.475 255.133 378.863L255.144 378.859C275.906 372.074 299.572 368.668 326.163 368.668C337.661 368.668 349.069 369.296 360.386 370.55L360.388 370.55C371.883 371.805 382.924 373.686 393.511 376.192L393.525 376.195L393.539 376.198C404.303 378.525 414.337 381.475 423.645 385.047L423.657 385.051L423.669 385.056C427.412 386.42 430.993 387.855 434.412 389.362C439.503 391.604 444.234 394.003 448.608 396.557L449.879 397.3L450.645 396.043L470.929 362.78L490.178 331.211L490.99 329.879L489.628 329.12C477.28 322.236 464.21 316.35 450.418 311.462C436.819 306.397 422.769 302.238 408.268 298.983C393.948 295.727 379.358 293.377 364.497 291.93C349.824 290.304 335.15 289.491 320.476 289.491C279.907 289.491 243.812 295.001 212.213 306.053L212.211 306.054C180.825 317.094 154.293 332.223 132.646 351.46C111.004 370.692 94.5363 393.381 83.2559 419.518C71.9777 445.47 66.3444 473.408 66.3444 503.315C66.3444 533.942 72.0676 562.777 83.522 589.803L83.5254 589.811C95.1623 616.839 111.893 640.424 133.708 660.555C155.531 680.693 182.06 696.547 213.269 708.132L213.272 708.133C244.695 719.73 280.166 725.514 319.664 725.514C347.929 725.514 373.958 722.532 397.742 716.555L397.752 716.552C421.515 710.399 442.765 701.887 461.491 691.004L461.5 690.999C480.219 679.939 496.319 666.784 509.789 651.531ZM713.25 368.128C734.479 368.128 754.127 370.98 772.205 376.671L600.915 607.263C587.891 595.256 577.595 580.937 570.025 564.291C562.361 547.04 558.514 527.624 558.514 506.017C558.514 484.409 562.361 465.085 570.023 448.018C577.878 430.921 588.669 416.514 602.395 404.776L602.397 404.775C616.317 392.846 632.659 383.754 651.441 377.507C670.409 371.259 691.008 368.128 713.25 368.128ZM713.25 646.607C693.835 646.607 675.672 644.084 658.753 639.047L829.177 409.622C840.392 420.412 849.403 433.208 856.21 448.024C864.05 465.09 867.987 484.411 867.987 506.017C867.987 527.622 864.05 547.036 856.207 564.285C848.349 581.568 837.551 596.344 823.813 608.626C810.073 620.73 793.731 630.091 774.764 636.695L774.76 636.697C755.983 643.298 735.484 646.607 713.25 646.607Z" fill="white" stroke="white" stroke-width="3"/>
</g>
<defs>
<clipPath id="clip0_2_26">
<rect width="1024" height="1024" fill="white"/>
</clipPath>
</defs>
</svg>
